<svg width="100" height="100" viewBox="0 0 100 100" fill="none" xmlns="http://www.w3.org/2000/svg">
<g clip-path="url(#clip0_14862_1104)">
<g clip-path="url(#clip1_14862_1104)">
<rect width="100" height="100" rx="50" fill="#1D1E23"/>
<circle cx="28.5" cy="74.5" r="40" fill="#FBFF3E"/>
<path d="M54 37.5C55.5 36 56.5 33.25 56.75 31C59.5833 31 65.05 31.65 63.25 34.25C61.45 36.85 56.25 38 54 37.5Z" fill="#F0F1F4"/>
</g>
<g clip-path="url(#clip2_14862_1104)">
<path d="M45.7185 53.8973C44.7671 54.0685 43.9386 53.9222 43.236 53.4744C42.5305 53.0106 42.1006 52.3496 41.9404 51.4596C41.7803 50.5696 41.9472 49.7684 42.4468 49.0879C42.9306 48.4102 43.6561 47.9843 44.6234 47.8103C45.5906 47.6362 46.4349 47.7797 47.1376 48.2275C47.8431 48.6913 48.2759 49.3681 48.4389 50.2741C48.6018 51.18 48.4292 51.9494 47.9268 52.614C47.4271 53.2946 46.6988 53.7046 45.7156 53.8814L45.7185 53.8973Z" fill="#151515"/>
<path d="M35.6494 55.7089C34.698 55.8801 33.8696 55.7338 33.1669 55.286C32.4643 54.8381 32.0315 54.1612 31.8714 53.2712C31.7112 52.3812 31.8781 51.58 32.3777 50.8994C32.8774 50.2189 33.6029 49.793 34.5543 49.6218C35.5057 49.4507 36.3659 49.5912 37.0685 50.0391C37.774 50.5028 38.2068 51.1797 38.3698 52.0856C38.5328 52.9915 38.3602 53.7609 37.8577 54.4256C37.3552 55.0903 36.6297 55.5161 35.6466 55.693L35.6494 55.7089Z" fill="#151515"/>
<path d="M44.2007 74.1221C42.2978 74.4644 40.5513 74.4013 38.9897 73.9111C37.4282 73.4209 36.1165 72.5904 35.0835 71.398C34.0346 70.2084 33.358 68.7222 33.0377 66.9422C32.7175 65.1622 32.8337 63.5333 33.4022 62.0528C33.9548 60.5751 34.8948 59.3395 36.1904 58.3517C37.486 57.3638 39.0852 56.6987 40.9721 56.3592C42.8591 56.0197 44.6215 56.08 46.1802 56.5544C47.7388 57.0287 49.0347 57.862 50.0677 59.0544C51.1007 60.2468 51.7774 61.733 52.0976 63.513C52.4179 65.2931 52.3017 66.9219 51.749 68.3996C51.1964 69.8773 50.2723 71.11 48.9795 72.1138C47.6868 73.1175 46.0876 73.7826 44.2007 74.1221ZM43.2084 68.6072C44.0013 68.4645 44.6444 68.2176 45.1508 67.8475C45.6571 67.4775 46.0008 67.0219 46.1947 66.4619C46.3886 65.902 46.4227 65.2724 46.2969 64.5731C46.1711 63.8738 45.9168 63.2796 45.5399 62.8224C45.163 62.3652 44.6662 62.0608 44.0785 61.8876C43.4749 61.7172 42.786 61.7099 41.9932 61.8526C41.2004 61.9952 40.5572 62.2422 40.0509 62.6122C39.5445 62.9822 39.185 63.4407 38.9911 64.0006C38.7971 64.5606 38.7631 65.1902 38.8918 65.9054C39.0204 66.6206 39.2689 67.1829 39.6459 67.6402C40.0228 68.0974 40.5195 68.4018 41.1231 68.5721C41.7267 68.7425 42.4315 68.747 43.2084 68.6072Z" fill="#151515"/>
</g>
<ellipse cx="71" cy="21" rx="20.5" ry="14.5" fill="#F0F1F4"/>
<path d="M69.5858 14.625H73.6658L73.0028 22.649H70.2488L69.5858 14.625ZM71.6258 27.562C70.9911 27.562 70.4811 27.3807 70.0958 27.018C69.7105 26.6554 69.5178 26.185 69.5178 25.607C69.5178 25.0177 69.7105 24.5417 70.0958 24.179C70.4811 23.8164 70.9911 23.635 71.6258 23.635C72.2605 23.635 72.7705 23.8164 73.1558 24.179C73.5411 24.5417 73.7338 25.0177 73.7338 25.607C73.7338 26.185 73.5411 26.6554 73.1558 27.018C72.7705 27.3807 72.2605 27.562 71.6258 27.562Z" fill="#151515"/>
</g>
<defs>
<clipPath id="clip0_14862_1104">
<rect width="100" height="100" fill="white"/>
</clipPath>
<clipPath id="clip1_14862_1104">
<rect width="100" height="100" rx="50" fill="white"/>
</clipPath>
<clipPath id="clip2_14862_1104">
<rect width="19.3659" height="25.8212" fill="white" transform="translate(30.0668 50.4292) rotate(-10.1992)"/>
</clipPath>
</defs>
</svg>
